MerriweatherSans-Italic.ufo
<glyph name="asterisk" format="1">
  <advance width="1366"/>
  <unicode hex="002A"/>
  <outline>
    <contour>
      <point x="308" y="815" type="line"/>
      <point x="565" y="986" type="line"/>
      <point x="683" y="1084" type="line"/>
      <point x="641" y="939" type="line"/>
      <point x="582" y="648" type="line"/>
      <point x="779" y="647" type="line"/>
      <point x="778" y="939" type="line"/>
      <point x="762" y="1084" type="line"/>
      <point x="863" y="986" type="line"/>
      <point x="1082" y="816" type="line"/>
      <point x="1197" y="982" type="line"/>
      <point x="942" y="1102" type="line"/>
      <point x="810" y="1149" type="line"/>
      <point x="952" y="1197" type="line"/>
      <point x="1231" y="1318" type="line"/>
      <point x="1154" y="1485" type="line"/>
      <point x="897" y="1314" type="line"/>
      <point x="777" y="1219" type="line"/>
      <point x="820" y="1361" type="line"/>
      <point x="879" y="1653" type="line"/>
      <point x="687" y="1653" type="line"/>
      <point x="685" y="1361" type="line"/>
      <point x="698" y="1219" type="line"/>
      <point x="598" y="1314" type="line"/>
      <point x="380" y="1484" type="line"/>
      <point x="265" y="1318" type="line"/>
      <point x="520" y="1197" type="line"/>
      <point x="652" y="1150" type="line"/>
      <point x="510" y="1102" type="line"/>
      <point x="231" y="982" type="line"/>
    </contour>
  </outline>
</glyph>
<glyph name="zero" format="1">
  <advance width="1278"/>
  <unicode hex="0030"/>
  <outline>
    <contour>
      <point x="103" y="450" type="curve" smooth="yes"/>
      <point x="103" y="208"/>
      <point x="234" y="-16"/>
      <point x="539" y="-16" type="curve" smooth="yes"/>
      <point x="899" y="-16"/>
      <point x="1165" y="315"/>
      <point x="1165" y="691" type="curve" smooth="yes"/>
      <point x="1165" y="955"/>
      <point x="1041" y="1156"/>
      <point x="734" y="1156" type="curve" smooth="yes"/>
      <point x="392" y="1156"/>
      <point x="103" y="853"/>
    </contour>
    <contour>
      <point x="310" y="466" type="curve" smooth="yes"/>
      <point x="310" y="682"/>
      <point x="403" y="1023"/>
      <point x="717" y="1017" type="curve" smooth="yes"/>
      <point x="894" y="1014"/>
      <point x="958" y="876"/>
      <point x="958" y="671" type="curve" smooth="yes"/>
      <point x="958" y="415"/>
      <point x="841" y="124"/>
      <point x="571" y="124" type="curve" smooth="yes"/>
      <point x="394" y="124"/>
      <point x="310" y="281"/>
    </contour>
  </outline>
</glyph>
<glyph name="two" format="1">
  <advance width="1249"/>
  <unicode hex="0032"/>
  <outline>
    <contour>
      <point x="95" y="0" type="line"/>
      <point x="1038" y="0" type="line"/>
      <point x="1065" y="173" type="line"/>
      <point x="346" y="134" type="line"/>
      <point x="700" y="312"/>
      <point x="1043" y="541"/>
      <point x="1043" y="826" type="curve" smooth="yes"/>
      <point x="1043" y="1001"/>
      <point x="931" y="1162"/>
      <point x="671" y="1162" type="curve" smooth="yes"/>
      <point x="459" y="1162"/>
      <point x="286" y="1049"/>
      <point x="205" y="964" type="curve"/>
      <point x="278" y="850" type="line"/>
      <point x="354" y="913"/>
      <point x="478" y="1001"/>
      <point x="615" y="1001" type="curve" smooth="yes"/>
      <point x="755" y="1001"/>
      <point x="822" y="938"/>
      <point x="822" y="805" type="curve" smooth="yes"/>
      <point x="822" y="594"/>
      <point x="452" y="321"/>
      <point x="62" y="130" type="curve"/>
    </contour>
  </outline>
</glyph>
<glyph name="three" format="1">
  <advance width="1104"/>
  <unicode hex="0033"/>
  <outline>
    <contour>
      <point x="59" y="-164" type="curve"/>
      <point x="43" y="-315" type="line"/>
      <point x="104" y="-323"/>
      <point x="155" y="-327"/>
      <point x="203" y="-327" type="curve" smooth="yes"/>
      <point x="553" y="-327"/>
      <point x="927" y="-132"/>
      <point x="927" y="176" type="curve" smooth="yes"/>
      <point x="927" y="338"/>
      <point x="804" y="482"/>
      <point x="573" y="482" type="curve"/>
      <point x="757" y="545"/>
      <point x="941" y="700"/>
      <point x="941" y="881" type="curve" smooth="yes"/>
      <point x="941" y="1077"/>
      <point x="784" y="1162"/>
      <point x="614" y="1162" type="curve" smooth="yes"/>
      <point x="400" y="1162"/>
      <point x="227" y="1063"/>
      <point x="160" y="998" type="curve"/>
      <point x="222" y="850" type="line"/>
      <point x="311" y="915"/>
      <point x="410" y="976"/>
      <point x="544" y="976" type="curve" smooth="yes"/>
      <point x="646" y="976"/>
      <point x="718" y="926"/>
      <point x="718" y="842" type="curve" smooth="yes"/>
      <point x="718" y="639"/>
      <point x="473" y="559"/>
      <point x="293" y="522" type="curve"/>
      <point x="276" y="351" type="line"/>
      <point x="418" y="385" type="line"/>
      <point x="620" y="383"/>
      <point x="696" y="293"/>
      <point x="696" y="159" type="curve" smooth="yes"/>
      <point x="696" y="-57"/>
      <point x="446" y="-174"/>
      <point x="189" y="-174" type="curve" smooth="yes"/>
      <point x="152" y="-174"/>
      <point x="108" y="-170"/>
    </contour>
  </outline>
</glyph>
<glyph name="six" format="1">
  <advance width="1263"/>
  <unicode hex="0036"/>
  <outline>
    <contour>
      <point x="145" y="493" type="curve" smooth="yes"/>
      <point x="145" y="220"/>
      <point x="284" y="-16"/>
      <point x="558" y="-16" type="curve" smooth="yes"/>
      <point x="917" y="-16"/>
      <point x="1110" y="313"/>
      <point x="1110" y="605" type="curve" smooth="yes"/>
      <point x="1110" y="800"/>
      <point x="1016" y="989"/>
      <point x="761" y="989" type="curve" smooth="yes"/>
      <point x="595" y="989"/>
      <point x="488" y="930"/>
      <point x="420" y="869" type="curve"/>
      <point x="514" y="1120"/>
      <point x="745" y="1347"/>
      <point x="1046" y="1456" type="curve"/>
      <point x="1002" y="1571" type="line"/>
      <point x="509" y="1434"/>
      <point x="145" y="1007"/>
    </contour>
    <contour>
      <point x="342" y="474" type="curve" smooth="yes"/>
      <point x="342" y="546"/>
      <point x="350" y="602"/>
      <point x="369" y="687" type="curve"/>
      <point x="412" y="734"/>
      <point x="514" y="836"/>
      <point x="713" y="836" type="curve" smooth="yes"/>
      <point x="822" y="836"/>
      <point x="911" y="761"/>
      <point x="911" y="576" type="curve" smooth="yes"/>
      <point x="911" y="397"/>
      <point x="827" y="122"/>
      <point x="604" y="122" type="curve" smooth="yes"/>
      <point x="411" y="122"/>
      <point x="342" y="292"/>
    </contour>
  </outline>
</glyph>
<glyph name="at" format="1">
  <advance width="1968"/>
  <unicode hex="0040"/>
  <outline>
    <contour>
      <point x="121" y="374" type="curve" smooth="yes"/>
      <point x="121" y="-143"/>
      <point x="449" y="-440"/>
      <point x="898" y="-440" type="curve" smooth="yes"/>
      <point x="1069" y="-440"/>
      <point x="1232" y="-394"/>
      <point x="1324" y="-324" type="curve"/>
      <point x="1291" y="-227" type="line"/>
      <point x="1223" y="-260"/>
      <point x="1031" y="-301"/>
      <point x="913" y="-301" type="curve" smooth="yes"/>
      <point x="578" y="-301"/>
      <point x="273" y="-110"/>
      <point x="273" y="398" type="curve" smooth="yes"/>
      <point x="273" y="902"/>
      <point x="606" y="1414"/>
      <point x="1147" y="1414" type="curve" smooth="yes"/>
      <point x="1452" y="1414"/>
      <point x="1716" y="1298"/>
      <point x="1716" y="859" type="curve" smooth="yes"/>
      <point x="1716" y="536"/>
      <point x="1526" y="185"/>
      <point x="1358" y="185" type="curve" smooth="yes"/>
      <point x="1348" y="185"/>
      <point x="1344" y="195"/>
      <point x="1344" y="213" type="curve" smooth="yes"/>
      <point x="1344" y="254"/>
      <point x="1339" y="297"/>
      <point x="1349" y="400" type="curve" smooth="yes"/>
      <point x="1368" y="601"/>
      <point x="1419" y="915"/>
      <point x="1458" y="1068" type="curve"/>
      <point x="1293" y="1038" type="line"/>
      <point x="1237" y="1077"/>
      <point x="1128" y="1092"/>
      <point x="1073" y="1092" type="curve" smooth="yes"/>
      <point x="703" y="1092"/>
      <point x="539" y="725"/>
      <point x="533" y="434" type="curve" smooth="yes"/>
      <point x="527" y="137"/>
      <point x="676" y="7"/>
      <point x="811" y="7" type="curve" smooth="yes"/>
      <point x="959" y="7"/>
      <point x="1089" y="158"/>
      <point x="1179" y="371" type="curve"/>
      <point x="1173" y="312"/>
      <point x="1167" y="272"/>
      <point x="1167" y="225" type="curve" smooth="yes"/>
      <point x="1167" y="106"/>
      <point x="1167" y="11"/>
      <point x="1257" y="11" type="curve" smooth="yes"/>
      <point x="1524" y="11"/>
      <point x="1869" y="330"/>
      <point x="1869" y="889" type="curve" smooth="yes"/>
      <point x="1869" y="1289"/>
      <point x="1609" y="1545"/>
      <point x="1185" y="1545" type="curve" smooth="yes"/>
      <point x="595" y="1545"/>
      <point x="121" y="1098"/>
    </contour>
    <contour>
      <point x="712" y="447" type="curve" smooth="yes"/>
      <point x="712" y="677"/>
      <point x="837" y="967"/>
      <point x="1065" y="967" type="curve" smooth="yes"/>
      <point x="1120" y="967"/>
      <point x="1212" y="943"/>
      <point x="1245" y="892" type="curve"/>
      <point x="1215" y="652"/>
      <point x="979" y="160"/>
      <point x="842" y="160" type="curve" smooth="yes"/>
      <point x="741" y="160"/>
      <point x="712" y="290"/>
    </contour>
  </outline>
</glyph>
<glyph name="C" format="1">
  <advance width="1141"/>
  <unicode hex="0043"/>
  <outline>
    <contour>
      <point x="107" y="627" type="curve" smooth="yes"/>
      <point x="112" y="317"/>
      <point x="236" y="-16"/>
      <point x="610" y="-16" type="curve" smooth="yes"/>
      <point x="876" y="-16"/>
      <point x="996" y="54"/>
      <point x="1035" y="84" type="curve"/>
      <point x="1005" y="250" type="line"/>
      <point x="966" y="218"/>
      <point x="825" y="142"/>
      <point x="646" y="142" type="curve" smooth="yes"/>
      <point x="417" y="142"/>
      <point x="314" y="366"/>
      <point x="309" y="648" type="curve" smooth="yes"/>
      <point x="304" y="934"/>
      <point x="422" y="1380"/>
      <point x="810" y="1380" type="curve" smooth="yes"/>
      <point x="973" y="1380"/>
      <point x="1041" y="1332"/>
      <point x="1072" y="1315" type="curve"/>
      <point x="1142" y="1479" type="line"/>
      <point x="1088" y="1497" type="line"/>
      <point x="1019" y="1521"/>
      <point x="947" y="1546"/>
      <point x="817" y="1546" type="curve" smooth="yes"/>
      <point x="411" y="1546"/>
      <point x="97" y="1175"/>
    </contour>
    <contour>
      <point x="626" y="-168" type="move" name="btm"/>
    </contour>
    <contour>
      <point x="808" y="1700" type="move" name="top"/>
    </contour>
  </outline>
</glyph>
<glyph name="F" format="1">
  <advance width="1057"/>
  <unicode hex="0046"/>
  <outline>
    <contour>
      <point x="110" y="0" type="line"/>
      <point x="308" y="0" type="line"/>
      <point x="398" y="710" type="line"/>
      <point x="874" y="694" type="line"/>
      <point x="886" y="862" type="line"/>
      <point x="416" y="854" type="line"/>
      <point x="482" y="1381" type="line"/>
      <point x="1079" y="1373" type="line"/>
      <point x="1093" y="1530" type="line"/>
      <point x="303" y="1530" type="line"/>
    </contour>
    <contour>
      <point x="533" y="-168" type="move" name="btm"/>
    </contour>
    <contour>
      <point x="687" y="1700" type="move" name="top"/>
    </contour>
  </outline>
</glyph>
<glyph name="N" format="1">
  <advance width="1400"/>
  <unicode hex="004E"/>
  <outline>
    <contour>
      <point x="110" y="0" type="line"/>
      <point x="295" y="0" type="line"/>
      <point x="421" y="1009" type="line"/>
      <point x="448" y="1307" type="line"/>
      <point x="501" y="1075" type="line"/>
      <point x="956" y="0" type="line"/>
      <point x="1149" y="0" type="line"/>
      <point x="1342" y="1530" type="line"/>
      <point x="1154" y="1530" type="line"/>
      <point x="1031" y="510" type="line"/>
      <point x="1012" y="261" type="line"/>
      <point x="949" y="468" type="line"/>
      <point x="509" y="1530" type="line"/>
      <point x="303" y="1530" type="line"/>
    </contour>
    <contour>
      <point x="638" y="-170" type="move" name="btm"/>
    </contour>
    <contour>
      <point x="857" y="1700" type="move" name="top"/>
    </contour>
  </outline>
</glyph>
<glyph name="O" format="1">
  <advance width="1378"/>
  <unicode hex="004F"/>
  <outline>
    <contour>
      <point x="599" y="-16" type="curve" smooth="yes"/>
      <point x="1023" y="-16"/>
      <point x="1314" y="400"/>
      <point x="1305" y="921" type="curve" smooth="yes"/>
      <point x="1299" y="1264"/>
      <point x="1139" y="1546"/>
      <point x="814" y="1546" type="curve" smooth="yes"/>
      <point x="402" y="1546"/>
      <point x="98" y="1140"/>
      <point x="108" y="610" type="curve" smooth="yes"/>
      <point x="114" y="267"/>
      <point x="274" y="-16"/>
    </contour>
    <contour>
      <point x="631" y="136" type="curve" smooth="yes"/>
      <point x="420" y="136"/>
      <point x="321" y="295"/>
      <point x="314" y="648" type="curve" smooth="yes"/>
      <point x="307" y="1028"/>
      <point x="499" y="1389"/>
      <point x="782" y="1389" type="curve" smooth="yes"/>
      <point x="993" y="1389"/>
      <point x="1093" y="1236"/>
      <point x="1099" y="883" type="curve" smooth="yes"/>
      <point x="1106" y="485"/>
      <point x="915" y="136"/>
    </contour>
    <contour>
      <point x="586" y="-170" type="move" name="btm"/>
    </contour>
    <contour>
      <point x="829" y="1700" type="move" name="top"/>
    </contour>
  </outline>
</glyph>
<glyph name="U" format="1">
  <advance width="1363"/>
  <unicode hex="0055"/>
  <outline>
    <contour>
      <point x="146" y="428" type="curve" smooth="yes"/>
      <point x="151" y="152"/>
      <point x="304" y="-16"/>
      <point x="602" y="-16" type="curve" smooth="yes"/>
      <point x="943" y="-16"/>
      <point x="1147" y="155"/>
      <point x="1208" y="627" type="curve" smooth="yes"/>
      <point x="1322" y="1530" type="line"/>
      <point x="1129" y="1530" type="line"/>
      <point x="1017" y="644" type="line" smooth="yes"/>
      <point x="972" y="286"/>
      <point x="844" y="145"/>
      <point x="630" y="145" type="curve" smooth="yes"/>
      <point x="455" y="145"/>
      <point x="353" y="241"/>
      <point x="349" y="436" type="curve" smooth="yes"/>
      <point x="348" y="493"/>
      <point x="353" y="555"/>
      <point x="361" y="628" type="curve" smooth="yes"/>
      <point x="475" y="1530" type="line"/>
      <point x="277" y="1530" type="line"/>
      <point x="159" y="593" type="line" smooth="yes"/>
      <point x="153" y="534"/>
      <point x="145" y="480"/>
    </contour>
    <contour>
      <point x="574" y="-170" type="move" name="btm"/>
    </contour>
    <contour>
      <point x="816" y="1700" type="move" name="top"/>
    </contour>
  </outline>
</glyph>
<glyph name="Z" format="1">
  <advance width="1157"/>
  <unicode hex="005A"/>
  <outline>
    <contour>
      <point x="42" y="0" type="line"/>
      <point x="1003" y="0" type="line"/>
      <point x="1031" y="170" type="line"/>
      <point x="279" y="158" type="line"/>
      <point x="403" y="303" type="line"/>
      <point x="1183" y="1444" type="line"/>
      <point x="1158" y="1530" type="line"/>
      <point x="260" y="1530" type="line"/>
      <point x="238" y="1362" type="line"/>
      <point x="928" y="1376" type="line"/>
      <point x="794" y="1217" type="line"/>
      <point x="15" y="89" type="line"/>
    </contour>
    <contour>
      <point x="566" y="-170" type="move" name="btm"/>
    </contour>
    <contour>
      <point x="752" y="1700" type="move" name="top"/>
    </contour>
  </outline>
</glyph>
<glyph name="c" format="1">
  <advance width="905"/>
  <unicode hex="0063"/>
  <outline>
    <contour>
      <point x="85" y="434" type="curve" smooth="yes"/>
      <point x="85" y="151"/>
      <point x="216" y="-16"/>
      <point x="462" y="-16" type="curve" smooth="yes"/>
      <point x="638" y="-16"/>
      <point x="769" y="97"/>
      <point x="820" y="166" type="curve"/>
      <point x="755" y="272" type="line"/>
      <point x="655" y="175"/>
      <point x="580" y="133"/>
      <point x="492" y="133" type="curve" smooth="yes"/>
      <point x="358" y="133"/>
      <point x="284" y="216"/>
      <point x="284" y="454" type="curve" smooth="yes"/>
      <point x="284" y="778"/>
      <point x="478" y="1009"/>
      <point x="648" y="1009" type="curve" smooth="yes"/>
      <point x="720" y="1009"/>
      <point x="782" y="994"/>
      <point x="834" y="951" type="curve"/>
      <point x="885" y="1118" type="line"/>
      <point x="828" y="1147"/>
      <point x="737" y="1156"/>
      <point x="665" y="1156" type="curve" smooth="yes"/>
      <point x="280" y="1156"/>
      <point x="85" y="747"/>
    </contour>
    <contour>
      <point x="452" y="-166" type="move" name="btm"/>
    </contour>
    <contour>
      <point x="655" y="1259" type="move" name="top"/>
    </contour>
  </outline>
</glyph>
<glyph name="l" format="1">
  <advance width="584"/>
  <unicode hex="006C"/>
  <outline>
    <contour>
      <point x="125" y="4" type="line"/>
      <point x="320" y="4" type="line"/>
      <point x="543" y="1638" type="line"/>
      <point x="348" y="1638" type="line"/>
    </contour>
    <contour>
      <point x="231" y="-166" type="move" name="btm"/>
    </contour>
    <contour>
      <point x="616" y="1572" type="move" name="caron"/>
    </contour>
    <contour>
      <point x="338" y="1259" type="move" name="top"/>
    </contour>
    <contour>
      <point x="535" y="1885" type="move" name="cap"/>
    </contour>
  </outline>
</glyph>
<glyph name="m" format="1">
  <advance width="1769"/>
  <unicode hex="006D"/>
  <outline>
    <contour>
      <point x="311" y="612" type="line"/>
      <point x="387" y="784"/>
      <point x="596" y="975"/>
      <point x="727" y="975" type="curve" smooth="yes"/>
      <point x="792" y="975"/>
      <point x="833" y="960"/>
      <point x="833" y="854" type="curve" smooth="yes"/>
      <point x="833" y="787"/>
      <point x="816" y="663"/>
      <point x="794" y="514" type="curve" smooth="yes"/>
      <point x="771" y="358"/>
      <point x="743" y="176"/>
      <point x="720" y="4" type="curve"/>
      <point x="916" y="4" type="line"/>
      <point x="941" y="173"/>
      <point x="970" y="357"/>
      <point x="992" y="515" type="curve" smooth="yes"/>
      <point x="1015" y="674"/>
      <point x="1032" y="805"/>
      <point x="1032" y="866" type="curve" smooth="yes"/>
      <point x="1032" y="1074"/>
      <point x="957" y="1156"/>
      <point x="809" y="1156" type="curve" smooth="yes"/>
      <point x="593" y="1156"/>
      <point x="375" y="944"/>
      <point x="289" y="743" type="curve" smooth="yes"/>
      <point x="284" y="613" type="line"/>
    </contour>
    <contour>
      <point x="918" y="612" type="line"/>
      <point x="994" y="784"/>
      <point x="1207" y="975"/>
      <point x="1338" y="975" type="curve" smooth="yes"/>
      <point x="1403" y="975"/>
      <point x="1443" y="960"/>
      <point x="1443" y="854" type="curve" smooth="yes"/>
      <point x="1443" y="787"/>
      <point x="1426" y="663"/>
      <point x="1404" y="514" type="curve" smooth="yes"/>
      <point x="1381" y="358"/>
      <point x="1353" y="176"/>
      <point x="1330" y="4" type="curve"/>
      <point x="1526" y="4" type="line"/>
      <point x="1551" y="173"/>
      <point x="1580" y="357"/>
      <point x="1602" y="515" type="curve" smooth="yes"/>
      <point x="1625" y="674"/>
      <point x="1642" y="805"/>
      <point x="1642" y="866" type="curve" smooth="yes"/>
      <point x="1642" y="1074"/>
      <point x="1568" y="1156"/>
      <point x="1420" y="1156" type="curve" smooth="yes"/>
      <point x="1204" y="1156"/>
      <point x="982" y="944"/>
      <point x="896" y="743" type="curve" smooth="yes"/>
      <point x="891" y="613" type="line"/>
    </contour>
    <contour>
      <point x="83" y="4" type="line"/>
      <point x="278" y="4" type="line"/>
      <point x="402" y="916" type="line"/>
      <point x="423" y="1140" type="line"/>
      <point x="238" y="1140" type="line"/>
    </contour>
    <contour>
      <point x="966" y="1259" type="move" name="top"/>
    </contour>
  </outline>
</glyph>
<glyph name="n" format="1">
  <advance width="1194"/>
  <unicode hex="006E"/>
  <outline>
    <contour>
      <point x="83" y="4" type="line"/>
      <point x="278" y="4" type="line"/>
      <point x="402" y="916" type="line"/>
      <point x="423" y="1140" type="line"/>
      <point x="238" y="1140" type="line"/>
    </contour>
    <contour>
      <point x="311" y="612" type="line"/>
      <point x="393" y="784"/>
      <point x="622" y="975"/>
      <point x="762" y="975" type="curve" smooth="yes"/>
      <point x="827" y="975"/>
      <point x="867" y="960"/>
      <point x="867" y="854" type="curve" smooth="yes"/>
      <point x="867" y="787"/>
      <point x="850" y="663"/>
      <point x="828" y="514" type="curve" smooth="yes"/>
      <point x="805" y="358"/>
      <point x="777" y="176"/>
      <point x="754" y="4" type="curve"/>
      <point x="950" y="4" type="line"/>
      <point x="975" y="173"/>
      <point x="1004" y="357"/>
      <point x="1026" y="515" type="curve" smooth="yes"/>
      <point x="1049" y="674"/>
      <point x="1066" y="805"/>
      <point x="1066" y="866" type="curve" smooth="yes"/>
      <point x="1066" y="1074"/>
      <point x="992" y="1156"/>
      <point x="844" y="1156" type="curve" smooth="yes"/>
      <point x="616" y="1156"/>
      <point x="381" y="944"/>
      <point x="289" y="743" type="curve"/>
    </contour>
    <contour>
      <point x="493" y="-166" type="move" name="btm"/>
    </contour>
    <contour>
      <point x="663" y="1259" type="move" name="top"/>
    </contour>
  </outline>
</glyph>
<glyph name="v" format="1">
  <advance width="1007"/>
  <unicode hex="0076"/>
  <outline>
    <contour>
      <point x="270" y="-16" type="line"/>
      <point x="445" y="-4" type="line"/>
      <point x="606" y="184" type="line" smooth="yes"/>
      <point x="779" y="392"/>
      <point x="966" y="694"/>
      <point x="993" y="1005" type="curve" smooth="yes"/>
      <point x="997" y="1050"/>
      <point x="997" y="1096"/>
      <point x="994" y="1140" type="curve"/>
      <point x="808" y="1140" type="line"/>
      <point x="813" y="1094"/>
      <point x="787" y="920"/>
      <point x="771" y="854" type="curve" smooth="yes"/>
      <point x="715" y="622"/>
      <point x="650" y="517"/>
      <point x="541" y="342" type="curve" smooth="yes"/>
      <point x="397" y="154" type="line"/>
      <point x="387" y="359" type="line"/>
      <point x="320" y="1140" type="line"/>
      <point x="102" y="1140" type="line"/>
      <point x="212" y="359" type="line"/>
    </contour>
    <contour>
      <point x="557" y="1259" type="move" name="top"/>
    </contour>
  </outline>
</glyph>
<glyph name="bar" format="1">
  <advance width="854"/>
  <unicode hex="007C"/>
  <outline>
    <contour>
      <point x="354" y="-186" type="line"/>
      <point x="527" y="-186" type="line"/>
      <point x="527" y="1780" type="line"/>
      <point x="354" y="1780" type="line"/>
    </contour>
  </outline>
</glyph>
<glyph name="cent" format="1">
  <advance width="1057"/>
  <unicode hex="00A2"/>
  <outline>
    <contour>
      <point x="579" y="1054" type="line"/>
      <point x="728" y="1054" type="line"/>
      <point x="805" y="1358" type="line"/>
      <point x="655" y="1358" type="line"/>
    </contour>
    <contour>
      <point x="420" y="103" type="line"/>
      <point x="361" y="-215" type="line"/>
      <point x="511" y="-215" type="line"/>
      <point x="570" y="103" type="line"/>
    </contour>
    <component base="c" xOffset="52"/>
  </outline>
</glyph>
<glyph name="sterling" format="1">
  <advance width="1368"/>
  <unicode hex="00A3"/>
  <outline>
    <contour>
      <point x="-8" y="74" type="curve" smooth="yes"/>
      <point x="-20" y="-5"/>
      <point x="28" y="-20"/>
      <point x="68" y="-20" type="curve" smooth="yes"/>
      <point x="150" y="-20"/>
      <point x="244" y="33"/>
      <point x="297" y="102" type="curve"/>
      <point x="449" y="49"/>
      <point x="609" y="-20"/>
      <point x="822" y="-20" type="curve" smooth="yes"/>
      <point x="1238" y="-20"/>
      <point x="1279" y="201"/>
      <point x="1280" y="326" type="curve" smooth="yes"/>
      <point x="1281" y="435"/>
      <point x="1219" y="536"/>
      <point x="1140" y="600" type="curve"/>
      <point x="983" y="481" type="line"/>
      <point x="1035" y="452"/>
      <point x="1074" y="374"/>
      <point x="1074" y="321" type="curve" smooth="yes"/>
      <point x="1074" y="198"/>
      <point x="1007" y="121"/>
      <point x="796" y="121" type="curve" smooth="yes"/>
      <point x="650" y="121"/>
      <point x="527" y="183"/>
      <point x="416" y="217" type="curve"/>
      <point x="508" y="357"/>
      <point x="527" y="425"/>
      <point x="572" y="696" type="curve" smooth="yes"/>
      <point x="620" y="968" type="line" smooth="yes"/>
      <point x="675" y="1303"/>
      <point x="823" y="1404"/>
      <point x="941" y="1404" type="curve" smooth="yes"/>
      <point x="1058" y="1404"/>
      <point x="1128" y="1346"/>
      <point x="1138" y="1323" type="curve"/>
      <point x="1231" y="1463" type="line"/>
      <point x="1165" y="1533"/>
      <point x="1083" y="1545"/>
      <point x="972" y="1545" type="curve" smooth="yes"/>
      <point x="624" y="1546"/>
      <point x="458" y="1259"/>
      <point x="418" y="966" type="curve" smooth="yes"/>
      <point x="338" y="493" type="line" smooth="yes"/>
      <point x="327" y="413"/>
      <point x="295" y="287"/>
      <point x="227" y="233" type="curve"/>
      <point x="131" y="234"/>
      <point x="3" y="144"/>
    </contour>
    <contour>
      <point x="203" y="744" type="line"/>
      <point x="897" y="744" type="line"/>
      <point x="914" y="875" type="line"/>
      <point x="221" y="875" type="line"/>
    </contour>
  </outline>
</glyph>
<glyph name="yen" format="1">
  <advance width="1483"/>
  <unicode hex="00A5"/>
  <outline>
    <contour>
      <point x="230" y="376" type="line"/>
      <point x="1235" y="376" type="line"/>
      <point x="1252" y="506" type="line"/>
      <point x="247" y="506" type="line"/>
    </contour>
    <contour>
      <point x="277" y="731" type="line"/>
      <point x="1282" y="731" type="line"/>
      <point x="1299" y="862" type="line"/>
      <point x="294" y="862" type="line"/>
    </contour>
    <contour>
      <point x="597" y="0" type="line"/>
      <point x="774" y="0" type="line"/>
      <point x="863" y="756" type="line"/>
      <point x="1440" y="1530" type="line"/>
      <point x="1246" y="1530" type="line"/>
      <point x="878" y="983" type="line"/>
      <point x="812" y="864" type="line"/>
      <point x="771" y="975" type="line"/>
      <point x="517" y="1530" type="line"/>
      <point x="324" y="1530" type="line"/>
      <point x="688" y="765" type="line"/>
    </contour>
  </outline>
</glyph>
<glyph name="dieresis" format="1">
  <advance width="809"/>
  <unicode hex="00A8"/>
  <outline>
    <contour>
      <point x="175" y="1388" type="curve" smooth="yes"/>
      <point x="255" y="1388"/>
      <point x="324" y="1458"/>
      <point x="327" y="1536" type="curve" smooth="yes"/>
      <point x="330" y="1598"/>
      <point x="281" y="1651"/>
      <point x="205" y="1651" type="curve" smooth="yes"/>
      <point x="132" y="1651"/>
      <point x="63" y="1584"/>
      <point x="60" y="1508" type="curve" smooth="yes"/>
      <point x="57" y="1443"/>
      <point x="110" y="1388"/>
    </contour>
    <contour>
      <point x="595" y="1388" type="curve" smooth="yes"/>
      <point x="675" y="1388"/>
      <point x="744" y="1458"/>
      <point x="747" y="1536" type="curve" smooth="yes"/>
      <point x="750" y="1598"/>
      <point x="701" y="1651"/>
      <point x="625" y="1651" type="curve" smooth="yes"/>
      <point x="552" y="1651"/>
      <point x="483" y="1584"/>
      <point x="480" y="1508" type="curve" smooth="yes"/>
      <point x="477" y="1443"/>
      <point x="530" y="1388"/>
    </contour>
    <contour>
      <point x="384" y="1255" type="move" name="_top"/>
    </contour>
  </outline>
</glyph>
<glyph name="degree" format="1">
  <advance width="899"/>
  <unicode hex="00B0"/>
  <outline>
    <contour>
      <point x="470" y="1076" type="curve" smooth="yes"/>
      <point x="364" y="1076"/>
      <point x="282" y="1167"/>
      <point x="284" y="1278" type="curve" smooth="yes"/>
      <point x="286" y="1393"/>
      <point x="366" y="1479"/>
      <point x="477" y="1479" type="curve" smooth="yes"/>
      <point x="583" y="1479"/>
      <point x="666" y="1389"/>
      <point x="664" y="1278" type="curve" smooth="yes"/>
      <point x="662" y="1162"/>
      <point x="581" y="1076"/>
    </contour>
    <contour>
      <point x="463" y="955" type="curve" smooth="yes"/>
      <point x="656" y="955"/>
      <point x="801" y="1093"/>
      <point x="804" y="1278" type="curve" smooth="yes"/>
      <point x="807" y="1455"/>
      <point x="667" y="1600"/>
      <point x="482" y="1600" type="curve" smooth="yes"/>
      <point x="289" y="1600"/>
      <point x="147" y="1461"/>
      <point x="144" y="1278" type="curve" smooth="yes"/>
      <point x="141" y="1101"/>
      <point x="278" y="955"/>
    </contour>
  </outline>
</glyph>
<glyph name="questiondown" format="1">
  <advance width="1028"/>
  <unicode hex="00BF"/>
  <outline>
    <contour>
      <point x="268" y="97" type="curve" smooth="yes"/>
      <point x="268" y="125"/>
      <point x="270" y="164"/>
      <point x="277" y="193" type="curve"/>
      <point x="296" y="283"/>
      <point x="420" y="357"/>
      <point x="531" y="414" type="curve" smooth="yes"/>
      <point x="722" y="517"/>
      <point x="820" y="603"/>
      <point x="820" y="722" type="curve" smooth="yes"/>
      <point x="820" y="814"/>
      <point x="778" y="909"/>
      <point x="730" y="950" type="curve"/>
      <point x="713" y="951" type="line"/>
      <point x="586" y="901" type="line"/>
      <point x="593" y="870"/>
      <point x="630" y="801"/>
      <point x="630" y="741" type="curve" smooth="yes"/>
      <point x="630" y="491"/>
      <point x="87" y="537"/>
      <point x="87" y="66" type="curve" smooth="yes"/>
      <point x="87" y="-147"/>
      <point x="220" y="-365"/>
      <point x="588" y="-365" type="curve" smooth="yes"/>
      <point x="667" y="-365"/>
      <point x="762" y="-342"/>
      <point x="791" y="-312" type="curve"/>
      <point x="819" y="-172" type="line"/>
      <point x="739" y="-198"/>
      <point x="685" y="-205"/>
      <point x="602" y="-205" type="curve" smooth="yes"/>
      <point x="441" y="-205"/>
      <point x="268" y="-104"/>
    </contour>
    <contour>
      <point x="598" y="1164" type="curve" smooth="yes"/>
      <point x="693" y="1164"/>
      <point x="755" y="1241"/>
      <point x="755" y="1324" type="curve" smooth="yes"/>
      <point x="755" y="1390"/>
      <point x="701" y="1436"/>
      <point x="636" y="1436" type="curve" smooth="yes"/>
      <point x="541" y="1436"/>
      <point x="479" y="1376"/>
      <point x="479" y="1276" type="curve" smooth="yes"/>
      <point x="479" y="1217"/>
      <point x="513" y="1164"/>
    </contour>
  </outline>
</glyph>
<glyph name="germandbls" format="1">
  <advance width="1180"/>
  <unicode hex="00DF"/>
  <outline>
    <contour>
      <point x="77" y="4" type="line"/>
      <point x="271" y="4" type="line"/>
      <point x="380" y="871" type="line" smooth="yes"/>
      <point x="442" y="1344"/>
      <point x="563" y="1448"/>
      <point x="722" y="1448" type="curve" smooth="yes"/>
      <point x="838" y="1448"/>
      <point x="893" y="1377"/>
      <point x="893" y="1291" type="curve" smooth="yes"/>
      <point x="893" y="1177"/>
      <point x="838" y="1096"/>
      <point x="760" y="1013" type="curve" smooth="yes"/>
      <point x="699" y="948"/>
      <point x="656" y="892"/>
      <point x="656" y="797" type="curve" smooth="yes"/>
      <point x="656" y="710"/>
      <point x="731" y="597"/>
      <point x="790" y="527" type="curve" smooth="yes"/>
      <point x="830" y="469"/>
      <point x="879" y="375"/>
      <point x="879" y="302" type="curve" smooth="yes"/>
      <point x="879" y="177"/>
      <point x="821" y="137"/>
      <point x="662" y="136" type="curve" smooth="yes"/>
      <point x="574" y="135"/>
      <point x="488" y="186"/>
      <point x="454" y="218" type="curve"/>
      <point x="428" y="31" type="line"/>
      <point x="472" y="9"/>
      <point x="592" y="-16"/>
      <point x="679" y="-16" type="curve" smooth="yes"/>
      <point x="942" y="-16"/>
      <point x="1085" y="123"/>
      <point x="1085" y="312" type="curve" smooth="yes"/>
      <point x="1085" y="442"/>
      <point x="1018" y="550"/>
      <point x="961" y="630" type="curve" smooth="yes"/>
      <point x="910" y="701"/>
      <point x="844" y="769"/>
      <point x="844" y="819" type="curve" smooth="yes"/>
      <point x="844" y="964"/>
      <point x="1095" y="1023"/>
      <point x="1095" y="1297" type="curve" smooth="yes"/>
      <point x="1095" y="1491"/>
      <point x="960" y="1589"/>
      <point x="779" y="1589" type="curve" smooth="yes"/>
      <point x="564" y="1589"/>
      <point x="270" y="1531"/>
      <point x="194" y="931" type="curve" smooth="yes"/>
    </contour>
  </outline>
</glyph>
<glyph name="dcroat" format="1">
  <advance width="1161"/>
  <unicode hex="0111"/>
  <outline>
    <contour>
      <point x="628" y="1262" type="line"/>
      <point x="1210" y="1262" type="line"/>
      <point x="1226" y="1392" type="line"/>
      <point x="644" y="1392" type="line"/>
    </contour>
    <component base="d"/>
  </outline>
</glyph>
<glyph name="Hbar" format="1">
  <advance width="1410"/>
  <unicode hex="0126"/>
  <outline>
    <contour>
      <point x="52" y="998" type="line"/>
      <point x="1501" y="998" type="line"/>
      <point x="1515" y="1148" type="line"/>
      <point x="66" y="1148" type="line"/>
    </contour>
    <contour>
      <point x="110" y="0" type="line"/>
      <point x="308" y="0" type="line"/>
      <point x="501" y="1530" type="line"/>
      <point x="303" y="1530" type="line"/>
    </contour>
    <contour>
      <point x="961" y="0" type="line"/>
      <point x="1159" y="0" type="line"/>
      <point x="1352" y="1530" type="line"/>
      <point x="1154" y="1530" type="line"/>
    </contour>
    <contour>
      <point x="298" y="592" type="line"/>
      <point x="1166" y="592" type="line"/>
      <point x="1180" y="742" type="line"/>
      <point x="312" y="742" type="line"/>
    </contour>
    <contour>
      <point x="827" y="-168" type="move" name="btm"/>
    </contour>
    <contour>
      <point x="886" y="1700" type="move" name="top"/>
    </contour>
  </outline>
</glyph>
<glyph name="kgreenlandic" format="1">
  <advance width="1041"/>
  <unicode hex="0138"/>
  <outline>
    <contour>
      <point x="83" y="0" type="line"/>
      <point x="278" y="0" type="line"/>
      <point x="434" y="1155" type="line"/>
      <point x="240" y="1155" type="line"/>
    </contour>
    <contour>
      <point x="402" y="630" type="line"/>
      <point x="757" y="0" type="line"/>
      <point x="984" y="0" type="line"/>
      <point x="561" y="694" type="line"/>
    </contour>
    <contour>
      <point x="567" y="575" type="line"/>
      <point x="672" y="605"/>
      <point x="928" y="789"/>
      <point x="1021" y="1022" type="curve" smooth="yes"/>
      <point x="1038" y="1065"/>
      <point x="1050" y="1110"/>
      <point x="1054" y="1155" type="curve"/>
      <point x="868" y="1155" type="line"/>
      <point x="851" y="1108"/>
      <point x="830" y="1064"/>
      <point x="806" y="1022" type="curve" smooth="yes"/>
      <point x="703" y="840"/>
      <point x="548" y="712"/>
      <point x="402" y="631" type="curve"/>
    </contour>
    <contour>
      <point x="587" y="-128" type="move" name="bottom"/>
    </contour>
  </outline>
</glyph>
<glyph name="pi" format="1">
  <advance width="1556"/>
  <unicode hex="03C0"/>
  <outline>
    <contour>
      <point x="1085" y="-16" type="curve" smooth="yes"/>
      <point x="1255" y="-16"/>
      <point x="1389" y="119"/>
      <point x="1409" y="241" type="curve"/>
      <point x="1302" y="290" type="line"/>
      <point x="1274" y="236"/>
      <point x="1208" y="156"/>
      <point x="1149" y="156" type="curve" smooth="yes"/>
      <point x="1111" y="156"/>
      <point x="1076" y="177"/>
      <point x="1080" y="263" type="curve" smooth="yes"/>
      <point x="1157" y="999" type="line"/>
      <point x="977" y="999" type="line"/>
      <point x="881" y="257" type="line"/>
      <point x="859" y="88"/>
      <point x="931" y="-16"/>
    </contour>
    <contour>
      <point x="231" y="867" type="line"/>
      <point x="267" y="906"/>
      <point x="320" y="956"/>
      <point x="414" y="956" type="curve" smooth="yes"/>
      <point x="1156" y="955" type="line" smooth="yes"/>
      <point x="1336" y="955"/>
      <point x="1440" y="1027"/>
      <point x="1451" y="1215" type="curve"/>
      <point x="1309" y="1215" type="line"/>
      <point x="1291" y="1161"/>
      <point x="1244" y="1140"/>
      <point x="1162" y="1140" type="curve" smooth="yes"/>
      <point x="449" y="1140" type="line" smooth="yes"/>
      <point x="257" y="1140"/>
      <point x="158" y="1075"/>
      <point x="120" y="920" type="curve"/>
    </contour>
    <contour>
      <point x="135" y="97" type="curve"/>
      <point x="269" y="-24" type="line"/>
      <point x="328" y="-10"/>
      <point x="381" y="16"/>
      <point x="420" y="52" type="curve" smooth="yes"/>
      <point x="510" y="135"/>
      <point x="569" y="200"/>
      <point x="581" y="428" type="curve" smooth="yes"/>
      <point x="653" y="986" type="line"/>
      <point x="470" y="986" type="line"/>
      <point x="389" y="487" type="line" smooth="yes"/>
      <point x="377" y="347"/>
      <point x="367" y="242"/>
      <point x="257" y="161" type="curve" smooth="yes"/>
      <point x="205" y="124"/>
      <point x="153" y="101"/>
    </contour>
  </outline>
</glyph>
<glyph name="endash" format="1">
  <advance width="1538"/>
  <unicode hex="2013"/>
  <outline>
    <contour>
      <point x="218" y="694" type="line"/>
      <point x="1315" y="694" type="line"/>
      <point x="1345" y="851" type="line"/>
      <point x="248" y="851" type="line"/>
    </contour>
  </outline>
</glyph>
<glyph name="fraction" format="1">
  <advance width="1026"/>
  <unicode hex="2044"/>
  <outline>
    <contour>
      <point x="141" y="0" type="line"/>
      <point x="300" y="0" type="line"/>
      <point x="981" y="1530" type="line"/>
      <point x="822" y="1530" type="line"/>
    </contour>
  </outline>
</glyph>
<glyph name="naira" format="1">
  <advance width="1867"/>
  <unicode hex="20A6"/>
  <outline>
    <contour>
      <point x="1342" y="466" type="line" name="hr00"/>
      <point x="1317" y="263" type="line"/>
      <point x="1225" y="466" type="line"/>
    </contour>
    <contour>
      <point x="1402" y="906" type="line"/>
      <point x="1361" y="613" type="line"/>
      <point x="1151" y="613" type="line"/>
      <point x="992" y="906" type="line"/>
    </contour>
    <contour>
      <point x="604" y="1053" type="line"/>
      <point x="627" y="1239" type="line"/>
      <point x="721" y="1053" type="line"/>
    </contour>
    <contour>
      <point x="544" y="613" type="line"/>
      <point x="585" y="906" type="line"/>
      <point x="798" y="906" type="line"/>
      <point x="958" y="613" type="line"/>
    </contour>
    <contour>
      <point x="266" y="0" type="line"/>
      <point x="458" y="0" type="line"/>
      <point x="523" y="466" type="line"/>
      <point x="1038" y="466" type="line"/>
      <point x="1293" y="0" type="line"/>
      <point x="1467" y="0" type="line"/>
      <point x="1532" y="466" type="line"/>
      <point x="1812" y="466" type="line"/>
      <point x="1832" y="613" type="line"/>
      <point x="1553" y="613" type="line"/>
      <point x="1594" y="906" type="line"/>
      <point x="1887" y="906" type="line"/>
      <point x="1907" y="1053" type="line"/>
      <point x="1614" y="1053" type="line"/>
      <point x="1680" y="1522" type="line"/>
      <point x="1489" y="1522" type="line"/>
      <point x="1423" y="1053" type="line"/>
      <point x="912" y="1053" type="line"/>
      <point x="658" y="1522" type="line"/>
      <point x="479" y="1522" type="line"/>
      <point x="413" y="1053" type="line"/>
      <point x="135" y="1053" type="line"/>
      <point x="115" y="906" type="line"/>
      <point x="393" y="906" type="line"/>
      <point x="352" y="613" type="line"/>
      <point x="69" y="613" type="line"/>
      <point x="49" y="466" type="line"/>
      <point x="331" y="466" type="line"/>
    </contour>
  </outline>
</glyph>
<glyph name="partialdiff" format="1">
  <advance width="1367"/>
  <unicode hex="2202"/>
  <outline>
    <contour>
      <point x="166" y="461" type="curve" smooth="yes"/>
      <point x="181" y="168"/>
      <point x="395" y="-16"/>
      <point x="670" y="-16" type="curve" smooth="yes"/>
      <point x="1088" y="-16"/>
      <point x="1226" y="371"/>
      <point x="1226" y="822" type="curve" smooth="yes"/>
      <point x="1226" y="1237"/>
      <point x="1057" y="1685"/>
      <point x="547" y="1685" type="curve" smooth="yes"/>
      <point x="439" y="1685"/>
      <point x="287" y="1658"/>
      <point x="197" y="1593" type="curve"/>
      <point x="270" y="1467" type="line"/>
      <point x="322" y="1499"/>
      <point x="424" y="1521"/>
      <point x="505" y="1521" type="curve" smooth="yes"/>
      <point x="842" y="1521"/>
      <point x="978" y="1294"/>
      <point x="1010" y="1005" type="curve"/>
      <point x="927" y="1035"/>
      <point x="834" y="1050"/>
      <point x="742" y="1050" type="curve" smooth="yes"/>
      <point x="411" y="1050"/>
      <point x="145" y="848"/>
    </contour>
    <contour>
      <point x="688" y="146" type="curve" smooth="yes"/>
      <point x="459" y="146"/>
      <point x="388" y="297"/>
      <point x="377" y="495" type="curve" smooth="yes"/>
      <point x="362" y="779"/>
      <point x="553" y="897"/>
      <point x="725" y="897" type="curve" smooth="yes"/>
      <point x="837" y="897"/>
      <point x="929" y="885"/>
      <point x="1018" y="839" type="curve"/>
      <point x="1018" y="546"/>
      <point x="975" y="146"/>
    </contour>
  </outline>
</glyph>
<glyph name="summation" format="1">
  <advance width="1593"/>
  <unicode hex="2211"/>
  <outline>
    <contour>
      <point x="227" y="-116" type="line"/>
      <point x="253" y="-170" type="line"/>
      <point x="1305" y="-170" type="line"/>
      <point x="1305" y="-14" type="line"/>
      <point x="533" y="-14" type="line"/>
      <point x="1008" y="681" type="line"/>
      <point x="518" y="1356" type="line"/>
      <point x="1290" y="1356" type="line"/>
      <point x="1290" y="1522" type="line"/>
      <point x="257" y="1522" type="line"/>
      <point x="227" y="1442" type="line"/>
      <point x="778" y="675" type="line"/>
    </contour>
  </outline>
</glyph>
<glyph name="IJ_acutecomb" format="1">
  <advance width="1162"/>
  <outline>
    <contour>
      <point x="127" y="0" type="line"/>
      <point x="325" y="0" type="line"/>
      <point x="518" y="1530" type="line"/>
      <point x="320" y="1530" type="line"/>
    </contour>
    <contour>
      <point x="461" y="1593" type="line"/>
      <point x="557" y="1629"/>
      <point x="726" y="1761"/>
      <point x="788" y="1872" type="curve"/>
      <point x="664" y="2000" type="line"/>
      <point x="388" y="1658" type="line"/>
    </contour>
    <contour>
      <point x="711" y="86" type="curve" smooth="yes"/>
      <point x="682" y="-44"/>
      <point x="568" y="-176"/>
      <point x="410" y="-227" type="curve"/>
      <point x="445" y="-315" type="line"/>
      <point x="646" y="-281"/>
      <point x="817" y="-197"/>
      <point x="903" y="75" type="curve" smooth="yes"/>
      <point x="934" y="170"/>
      <point x="1025" y="859"/>
      <point x="1097" y="1530" type="curve"/>
      <point x="899" y="1530" type="line"/>
      <point x="848" y="1095"/>
      <point x="797" y="476"/>
    </contour>
    <component base="acute.cap" xOffset="889" yOffset="-2"/>
  </outline>
</glyph>
<glyph name="macron.cap" format="1">
  <advance width="614"/>
  <outline>
    <contour>
      <point x="36" y="1729" type="line"/>
      <point x="545" y="1729" type="line"/>
      <point x="550" y="1878" type="line"/>
      <point x="40" y="1878" type="line"/>
    </contour>
    <contour>
      <point x="310" y="1700" type="move" name="_top"/>
    </contour>
  </outline>
</glyph>
<glyph name="one.numr" format="1">
  <advance width="1020"/>
  <outline>
    <contour>
      <point x="443" y="636" type="line"/>
      <point x="628" y="636" type="line"/>
      <point x="763" y="1624" type="line"/>
      <point x="694" y="1645" type="line"/>
      <point x="643" y="1604"/>
      <point x="418" y="1501"/>
      <point x="278" y="1466" type="curve"/>
      <point x="284" y="1343" type="line"/>
      <point x="545" y="1395" type="line"/>
    </contour>
  </outline>
</glyph>
<glyph name="three.numr" format="1">
  <advance width="1071"/>
  <outline>
    <contour>
      <point x="124" y="606" type="line"/>
      <point x="201" y="557"/>
      <point x="333" y="534"/>
      <point x="404" y="534" type="curve" smooth="yes"/>
      <point x="638" y="534"/>
      <point x="902" y="642"/>
      <point x="910" y="884" type="curve" smooth="yes"/>
      <point x="913" y="977"/>
      <point x="867" y="1125"/>
      <point x="660" y="1124" type="curve"/>
      <point x="801" y="1177"/>
      <point x="919" y="1281"/>
      <point x="923" y="1428" type="curve" smooth="yes"/>
      <point x="927" y="1546"/>
      <point x="812" y="1644"/>
      <point x="618" y="1644" type="curve" smooth="yes"/>
      <point x="474" y="1644"/>
      <point x="343" y="1599"/>
      <point x="229" y="1520" type="curve"/>
      <point x="275" y="1408" type="line"/>
      <point x="359" y="1464"/>
      <point x="452" y="1500"/>
      <point x="544" y="1502" type="curve" smooth="yes"/>
      <point x="652" y="1505"/>
      <point x="701" y="1469"/>
      <point x="701" y="1390" type="curve" smooth="yes"/>
      <point x="701" y="1237"/>
      <point x="529" y="1174"/>
      <point x="388" y="1146" type="curve"/>
      <point x="367" y="1001" type="line"/>
      <point x="528" y="1036" type="line"/>
      <point x="635" y="1033"/>
      <point x="709" y="972"/>
      <point x="703" y="876" type="curve" smooth="yes"/>
      <point x="698" y="714"/>
      <point x="515" y="664"/>
      <point x="382" y="663" type="curve" smooth="yes"/>
      <point x="317" y="662"/>
      <point x="212" y="679"/>
      <point x="141" y="714" type="curve"/>
    </contour>
  </outline>
</glyph>
